<?xml version="1.0" encoding="utf-8"?>
<!-- Generator: Adobe Illustrator 27.0.0, SVG Export Plug-In . SVG Version: 6.00 Build 0)  -->
<svg version="1.1" id="Layer_1" xmlns="http://www.w3.org/2000/svg" xmlns:xlink="http://www.w3.org/1999/xlink" x="0px" y="0px"
	 viewBox="0 0 864 339.43" style="enable-background:new 0 0 864 339.43;" xml:space="preserve">
<style type="text/css">
	.st0{fill:#FFFFFF;}
	.st1{fill:#71C27D;}
</style>
<g>
	<path class="st0" d="M0,0h52.05v182.84h65.9v52.05H34.81C15.58,234.89,0,219.31,0,200.08V0z"/>
	<path class="st0" d="M352.84,0h52.05l43.26,166.96L490.73,0h52.72l-61.92,209.93c-4.37,14.8-17.96,24.96-33.39,24.96h0
		c-15.43,0-29.02-10.16-33.39-24.96L352.84,0z"/>
	<path class="st0" d="M546.49,34.81v165.27c0,19.22,15.58,34.81,34.81,34.81h84.5v-52.05h-67.26v-44.66h63.54V86.13h-63.54V52.05
		h67.26V0l-84.5,0C562.08,0,546.49,15.58,546.49,34.81z"/>
	<path class="st0" d="M234.72,0.34c-64.77,0-117.28,52.51-117.28,117.28c0,64.77,52.51,117.28,117.28,117.28
		s117.28-52.51,117.28-117.28C351.99,52.85,299.49,0.34,234.72,0.34z M234.72,182.84c-36.02,0-65.23-29.2-65.23-65.23
		c0-36.02,29.2-65.23,65.23-65.23s65.23,29.2,65.23,65.23C299.95,153.64,270.74,182.84,234.72,182.84z"/>
	<path class="st1" d="M824.3,82.67l4.28-4.28c11.97-11.97,18.69-28.2,18.69-45.13v0C847.27,14.89,832.37,0,814,0h-99.25v52.01h66.66
		l-30.66,30.66v42.51h34.12c16.89,0,30.17,15.43,26.51,32.96c-2.14,10.25-10.43,18.54-20.68,20.68
		c-17.53,3.65-39.96-9.63-39.96-26.51l-46.91,24.51c10.82,35.4,44.99,60.61,84.56,57.67c39.62-2.94,71.99-34.96,75.31-74.56
		C866.45,127.23,849.95,98.12,824.3,82.67z"/>
</g>
<g>
	<path class="st0" d="M409.01,295.09c-1.47-1.03-7.07-3.08-16.8-6.15c-5.97-1.9-8.96-4.89-8.96-8.99c0-2.92,1.31-5.21,3.92-6.86
		c2.62-1.65,5.52-2.48,8.72-2.48c3.27,0,6.5,0.56,9.69,1.66c3.2,1.11,6.3,2.65,9.33,4.61v-17.85c-3.28-1.5-6.52-2.5-9.76-3.01
		c-3.23-0.52-6.93-0.77-11.1-0.77c-8.43,0-15.38,2.36-20.86,7.09c-5.48,4.72-8.22,10.57-8.22,17.5c0,8.59,3.19,15.01,9.57,19.27
		c2.22,1.49,8.06,3.82,17.55,6.98c6.29,2.13,9.45,4.89,9.45,8.28c0,2.52-1.01,4.63-3.01,6.32c-2.01,1.69-5.26,2.54-9.76,2.54
		c-3.28,0-8.06-0.98-14.36-2.95c-2.05-0.63-4.78-1.58-8.22-2.84v17.62c3.92,1.42,7.77,2.5,11.53,3.25
		c3.76,0.75,7.57,1.13,11.41,1.13c8.18,0,14.89-1.93,20.12-5.79c5.89-4.34,8.84-10.57,8.84-18.69
		C418.09,305.74,415.06,299.12,409.01,295.09z"/>
	<path class="st0" d="M338.87,311.11c0,2.91-1.23,5.57-3.7,7.95c-2.47,2.39-5.56,3.59-9.29,3.59c-3.4,0-6.39-1.18-8.98-3.53
		c-2.6-2.34-3.89-5.05-3.89-8.13v-55.71h-17.59v57.18c0,7.12,3.18,13.4,9.55,18.81c6.36,5.42,13.26,8.14,20.68,8.14
		c8.94,0,16.52-3.04,22.73-9.11c5.88-5.75,8.82-12.38,8.82-19.91v-55.11h-18.32V311.11z"/>
	<polygon class="st0" points="422.67,271.33 438.69,271.33 438.69,339.37 456.53,339.37 456.53,271.33 472.43,271.33 472.43,255.31 
		422.67,255.31 	"/>
	<path class="st0" d="M544.56,267.87c-8.48-8.4-18.33-12.6-29.52-12.6c-11.44,0-21.4,4.2-29.88,12.6
		c-8.48,8.41-12.72,18.64-12.72,30.71c0,12.23,4.5,22.21,13.49,29.94c8.44,7.26,18.54,10.88,30.29,10.88
		c12.15,0,22.17-4.45,30.05-13.37c7.34-8.28,11.01-17.91,11.01-28.87C557.28,286.05,553.03,276.28,544.56,267.87z M532.86,313.79
		c-4.52,5.11-10.26,7.66-17.22,7.66c-6.74,0-12.52-2.08-17.36-6.24c-5.15-4.43-7.73-10.15-7.73-17.16c0-6.91,2.43-12.78,7.29-17.6
		c4.86-4.81,10.56-7.22,17.12-7.22c6.42,0,12.06,2.41,16.92,7.22c4.86,4.82,7.29,10.41,7.29,16.79
		C539.16,303.52,537.06,309.04,532.86,313.79z"/>
	<path class="st0" d="M278.72,314.53c-4.4,4.56-9.84,6.91-16.41,6.91c-6.74,0-12.52-2.08-17.36-6.24
		c-5.15-4.43-7.73-10.15-7.73-17.16c0-6.91,2.43-12.78,7.29-17.6c4.86-4.81,10.56-7.22,17.12-7.22c6.39,0,12,2.39,16.85,7.16
		l12.63-12.63c-8.46-8.32-18.25-12.49-29.4-12.49c-11.44,0-21.4,4.2-29.88,12.6c-8.48,8.41-12.72,18.64-12.72,30.71
		c0,12.23,4.5,22.21,13.49,29.94c8.44,7.26,18.54,10.88,30.29,10.88c11.47,0,20.97-4.11,28.64-12.06L278.72,314.53z"/>
	<path class="st0" d="M641.38,258.35c-2.35-2.03-5.16-3.04-8.43-3.04c-3.18,0-5.74,0.74-7.7,2.21c-1.95,1.48-3.36,3.68-4.25,6.63
		l-16.04,53.63l-16.04-53.63c-0.88-2.94-2.29-5.15-4.25-6.63c-1.95-1.47-4.52-2.21-7.7-2.21c-3.27,0-6.07,1.01-8.43,3.04
		c-2.34,2.03-3.52,4.8-3.52,8.3v4.31v68.42h15.16h2.68v-49.64l11.69,39.76c0.95,3.18,2.07,5.52,3.34,7.03
		c1.68,1.91,4.02,2.86,7.06,2.86c3.03,0,5.37-0.94,7.06-2.86c1.27-1.51,2.39-3.85,3.34-7.03l11.69-39.76v49.64h2.68h15.16v-68.42
		v-4.31C644.89,263.15,643.72,260.38,641.38,258.35z"/>
</g>
<rect x="652.66" y="321.54" class="st1" width="17.83" height="17.83"/>
<rect x="652.66" y="295.94" class="st1" width="17.83" height="17.83"/>
<rect x="652.66" y="270.34" class="st1" width="17.83" height="17.83"/>
<rect x="678.26" y="295.94" class="st1" width="17.83" height="17.83"/>
<rect x="703.86" y="321.54" class="st1" width="17.83" height="17.83"/>
<rect x="678.26" y="321.54" class="st1" width="17.83" height="17.83"/>
<rect x="193.51" y="255.31" transform="matrix(-1 -1.224647e-16 1.224647e-16 -1 404.8433 528.4506)" class="st1" width="17.83" height="17.83"/>
<rect x="193.51" y="280.91" transform="matrix(-1 -1.224647e-16 1.224647e-16 -1 404.8433 579.6528)" class="st1" width="17.83" height="17.83"/>
<rect x="193.51" y="306.51" transform="matrix(-1 -1.224647e-16 1.224647e-16 -1 404.8433 630.8549)" class="st1" width="17.83" height="17.83"/>
<rect x="167.9" y="280.91" transform="matrix(-1 -1.224647e-16 1.224647e-16 -1 353.6411 579.6528)" class="st1" width="17.83" height="17.83"/>
<rect x="142.3" y="255.31" transform="matrix(-1 -1.224647e-16 1.224647e-16 -1 302.439 528.4506)" class="st1" width="17.83" height="17.83"/>
<rect x="167.9" y="255.31" transform="matrix(-1 -1.224647e-16 1.224647e-16 -1 353.6411 528.4506)" class="st1" width="17.83" height="17.83"/>
</svg>
